<?xml version="1.0" standalone="no"?>
<!DOCTYPE svg PUBLIC "-//W3C//DTD SVG 20010904//EN"
 "http://www.w3.org/TR/2001/REC-SVG-20010904/DTD/svg10.dtd">
<svg version="1.0" xmlns="http://www.w3.org/2000/svg"
 width="300.000000pt" height="221.000000pt" viewBox="0 0 300.000000 221.000000"
 preserveAspectRatio="xMidYMid meet">
<metadata>
Created by potrace 1.10, written by Peter Selinger 2001-2011
</metadata>
<g transform="translate(0.000000,221.000000) scale(0.100000,-0.100000)"
fill="#000000" stroke="none">
<path d="M2064 1653 c3 -11 -2 -44 -13 -74 -53 -157 -166 -310 -326 -442 -67
-55 -245 -224 -245 -231 0 -3 21 4 47 16 40 18 60 20 157 15 77 -3 129 -11
170 -26 78 -28 94 -25 31 5 -71 33 -144 46 -241 42 -46 -1 -84 -1 -84 1 0 2
26 28 58 58 60 56 122 83 190 83 22 0 53 12 84 31 52 34 58 46 14 29 -55 -21
-49 -9 9 19 50 24 65 37 91 82 33 57 80 176 72 184 -10 10 -64 -41 -60 -58 8
-38 -49 -126 -125 -192 -41 -36 -80 -65 -88 -65 -31 0 -23 23 23 65 27 25 75
78 108 120 32 41 62 75 66 75 4 0 5 6 3 13 -2 6 16 27 41 45 l45 33 -3 91 c-2
66 -7 93 -17 96 -9 3 -11 -1 -7 -15z"/>
<path d="M2031 1592 c-39 -81 -107 -175 -204 -284 -91 -103 -144 -174 -135
-184 10 -9 195 194 241 264 47 70 132 240 125 248 -2 2 -15 -18 -27 -44z"/>
<path d="M1055 948 c-38 -66 -85 -143 -103 -171 l-33 -50 58 6 c32 4 110 22
174 41 163 48 215 50 274 11 20 -15 39 -24 41 -22 9 9 -42 60 -72 73 -53 22
-102 17 -254 -27 -78 -22 -143 -39 -145 -37 -2 2 30 70 71 151 41 81 71 147
67 147 -4 -1 -39 -55 -78 -122z"/>
<path d="M1882 1063 c2 -5 36 -72 76 -150 40 -79 68 -143 64 -143 -5 0 -61 16
-126 34 -196 58 -249 59 -311 4 -48 -42 -44 -52 9 -22 62 35 117 33 266 -10
125 -36 230 -55 230 -41 0 4 -8 19 -18 33 -10 15 -56 89 -101 165 -46 75 -85
137 -88 137 -2 0 -3 -3 -1 -7z"/>
<path d="M1295 783 c-51 -12 -219 -64 -224 -69 -8 -7 33 2 144 33 97 27 150
26 205 -2 19 -10 30 -11 30 -5 0 22 -112 53 -155 43z"/>
<path d="M1647 779 c-46 -11 -77 -26 -77 -39 0 -5 19 0 43 10 55 26 90 25 189
-4 91 -26 166 -41 133 -26 -30 12 -185 57 -220 63 -16 3 -47 1 -68 -4z"/>
<path d="M1265 740 c-27 -7 -28 -8 -5 -8 14 -1 43 3 65 7 l40 9 -35 0 c-19 0
-48 -4 -65 -8z"/>
<path d="M1695 739 c22 -4 49 -8 60 -7 16 0 15 2 -5 8 -14 4 -41 8 -60 8 l-35
0 40 -9z"/>
<path d="M1279 711 c-31 -5 -90 -16 -131 -26 -74 -17 -75 -17 -117 5 -24 12
-45 20 -47 18 -2 -2 17 -21 42 -42 l45 -38 87 21 c48 11 119 23 157 27 65 6
73 4 109 -20 26 -17 52 -26 78 -26 43 0 108 26 108 43 0 15 143 2 250 -23 l90
-22 44 39 c24 21 43 39 41 41 -2 2 -22 -6 -46 -18 l-43 -22 -97 22 c-54 12
-131 23 -171 23 -62 2 -78 -1 -102 -20 -37 -30 -97 -30 -137 -2 -35 25 -82 30
-160 20z"/>
</g>
</svg>
